<svg width="71" height="71" viewBox="0 0 71 71" fill="none" xmlns="http://www.w3.org/2000/svg">
<path d="M70.0293 35.6387C70.0293 40.4645 69.9322 45.3041 70.057 50.1299C70.265 58.6721 64.8984 65.2729 58.0619 68.2127C55.3162 69.3914 52.4318 70.0154 49.4504 70.0154C40.1178 70.0293 30.7713 70.1541 21.4387 69.9738C14.408 69.8352 8.62538 66.8953 4.47909 61.0988C2.30194 58.048 1.2619 54.5813 1.2619 50.8232C1.2619 40.8805 1.2619 30.9516 1.2619 21.0088C1.2619 12.8965 5.21405 7.2248 12.2308 3.53613C15.2816 1.94141 18.5959 1.26191 22.0488 1.24805C31.1041 1.24805 40.1732 1.19258 49.2285 1.27578C56.2592 1.33125 62.125 4.02148 66.4515 9.6793C68.8644 12.841 70.0293 16.4742 70.0293 20.468C70.0293 25.5156 70.0293 30.5771 70.0293 35.6387ZM6.37889 35.6387C6.37889 40.7279 6.37889 45.8033 6.37889 50.8926C6.37889 53.1668 6.90585 55.3023 8.08456 57.2299C11.1769 62.2914 15.8502 64.7598 21.6467 64.8568C30.9515 64.9955 40.2703 64.9123 49.589 64.8846C51.8771 64.8846 54.0959 64.4131 56.1621 63.4285C61.7922 60.7383 64.94 56.4533 64.9123 50.0189C64.8568 40.1732 64.8984 30.3275 64.8984 20.4818C64.8984 17.6945 64.108 15.143 62.4578 12.8965C59.2683 8.58379 54.8586 6.46211 49.589 6.40664C40.298 6.2957 31.007 6.36504 21.716 6.37891C19.733 6.37891 17.8193 6.78105 15.9611 7.47441C10.858 9.37422 6.11542 14.1861 6.33729 21.2723C6.5037 26.0703 6.37889 30.8545 6.37889 35.6387Z" fill="black" fill-opacity="0.25"/>
<path d="M35.7219 50.3379C26.7775 50.3379 19.5666 43.2102 19.5527 34.3352C19.5389 25.5988 26.8053 18.4434 35.6941 18.4434C44.6107 18.4295 51.8494 25.5711 51.8633 34.3768C51.8633 43.1686 44.6385 50.324 35.7219 50.3379ZM35.7219 45.207C41.8096 45.207 46.7463 40.3396 46.7324 34.349C46.7185 28.4139 41.7818 23.5603 35.7219 23.5603C29.6342 23.5603 24.6697 28.4 24.6697 34.3768C24.6836 40.3674 29.6342 45.2209 35.7219 45.207Z" fill="black" fill-opacity="0.25"/>
<path d="M53.7353 13.5898C55.6074 13.5898 57.1328 15.1846 57.1328 17.1398C57.1189 19.0951 55.5797 20.676 53.7076 20.6621C51.8633 20.6482 50.3517 19.0674 50.3517 17.1537C50.3379 15.1984 51.8633 13.5898 53.7353 13.5898Z" fill="black" fill-opacity="0.25"/>
</svg>
