<svg width="70" height="70" viewBox="0 0 70 70" fill="none" xmlns="http://www.w3.org/2000/svg">
<g clip-path="url(#clip0_10_45)">
<path d="M69.6289 51.0996C69.5442 50.9169 69.4651 50.7654 69.3917 50.644C68.1772 48.4566 65.8564 45.7718 62.4305 42.5888L62.3581 42.5159L62.3219 42.4801L62.2853 42.4435H62.2485C60.6937 40.9613 59.7091 39.9647 59.2967 39.4545C58.5423 38.4825 58.3733 37.4987 58.7856 36.5018C59.0769 35.7487 60.1712 34.1581 62.0658 31.728C63.0624 30.4401 63.8517 29.4079 64.4346 28.6302C68.6383 23.0415 70.4608 19.4703 69.9017 17.9151L69.6846 17.5516C69.5387 17.3328 69.1621 17.1327 68.5554 16.9501C67.9472 16.768 67.1699 16.7378 66.2221 16.8592L55.7259 16.9318C55.5559 16.8715 55.3131 16.8771 54.9967 16.9501C54.6808 17.0231 54.5227 17.0598 54.5227 17.0598L54.3401 17.1511L54.1951 17.2607C54.0735 17.3332 53.9399 17.4607 53.794 17.643C53.6488 17.8247 53.5274 18.0379 53.4304 18.2808C52.2877 21.2208 50.9884 23.9542 49.5302 26.481C48.6311 27.9877 47.8055 29.2935 47.0514 30.3991C46.2984 31.5043 45.6666 32.3186 45.1568 32.8406C44.6462 33.3631 44.1853 33.7817 43.7715 34.0979C43.3583 34.4142 43.0428 34.5479 42.8244 34.499C42.6055 34.4501 42.3993 34.4016 42.2042 34.3531C41.8642 34.1343 41.5908 33.8367 41.3846 33.4601C41.1776 33.0835 41.0382 32.6096 40.9653 32.0386C40.8928 31.4672 40.8499 30.9757 40.8376 30.5625C40.8263 30.1498 40.8315 29.566 40.8561 28.8129C40.8814 28.0593 40.8928 27.5495 40.8928 27.2822C40.8928 26.3587 40.9108 25.3565 40.9469 24.2753C40.9837 23.1941 41.0134 22.3374 41.0383 21.7063C41.0631 21.0745 41.0745 20.4061 41.0745 19.7015C41.0745 18.9968 41.0317 18.4442 40.9469 18.0431C40.8631 17.6425 40.7346 17.2537 40.5652 16.8767C40.3948 16.5002 40.1453 16.2088 39.818 16.002C39.4901 15.7955 39.0824 15.6316 38.5972 15.5098C37.3093 15.2184 35.6693 15.0607 33.6765 15.0362C29.1574 14.9877 26.2537 15.2795 24.9659 15.9113C24.4557 16.1782 23.9939 16.5429 23.5811 17.0043C23.1436 17.539 23.0826 17.8308 23.3984 17.8788C24.8565 18.0972 25.8887 18.6197 26.4962 19.4458L26.7151 19.8835C26.8854 20.1993 27.0555 20.7584 27.2256 21.5601C27.3955 22.3618 27.5052 23.2486 27.5534 24.22C27.6747 25.994 27.6747 27.5126 27.5534 28.7759C27.4318 30.0396 27.3169 31.0235 27.2072 31.7281C27.0976 32.4328 26.9337 33.0038 26.7151 33.441C26.4962 33.8783 26.3506 34.1456 26.2775 34.2426C26.2047 34.3396 26.1439 34.4008 26.0956 34.4248C25.7798 34.5458 25.4514 34.6075 25.1114 34.6075C24.771 34.6075 24.3581 34.4372 23.8723 34.0969C23.3866 33.7565 22.8825 33.2891 22.36 32.6937C21.8375 32.0982 21.2482 31.266 20.592 30.197C19.9362 29.1281 19.2558 27.8647 18.5512 26.4069L17.9682 25.3496C17.6037 24.6695 17.1059 23.6791 16.4741 22.3795C15.842 21.0794 15.2832 19.8217 14.7975 18.6068C14.6033 18.0966 14.3117 17.7081 13.923 17.4408L13.7405 17.3312C13.6193 17.2342 13.4246 17.1311 13.1575 17.0214C12.8901 16.9117 12.6111 16.8331 12.3192 16.7847L2.333 16.8572C1.31254 16.8572 0.620142 17.0884 0.255563 17.5501L0.109655 17.7685C0.0367643 17.8902 0 18.0845 0 18.3519C0 18.6192 0.0728903 18.9473 0.218799 19.3357C1.67661 22.762 3.26194 26.0663 4.9748 29.2492C6.68766 32.4321 8.1761 34.996 9.43924 36.9387C10.7026 38.8827 11.9904 40.7175 13.3026 42.4421C14.6147 44.1673 15.4833 45.2729 15.9082 45.7587C16.3337 46.2453 16.6679 46.6091 16.9108 46.852L17.8221 47.7266C18.4053 48.3098 19.2616 49.0083 20.3914 49.8221C21.5215 50.6364 22.7727 51.4381 24.1455 52.2284C25.5185 53.0174 27.1158 53.6613 28.9384 54.1593C30.7606 54.6578 32.5342 54.8578 34.2595 54.7613H38.4509C39.3009 54.6879 39.9449 54.4206 40.3827 53.9593L40.5277 53.7766C40.6252 53.6316 40.7165 53.4063 40.8007 53.1031C40.886 52.7994 40.9284 52.4648 40.9284 52.1009C40.9035 51.0563 40.983 50.1149 41.1648 49.2767C41.3464 48.4388 41.5535 47.807 41.7851 47.3815C42.0165 46.9564 42.2777 46.5977 42.5683 46.3069C42.8597 46.0155 43.0672 45.839 43.189 45.7782C43.31 45.7171 43.4067 45.6756 43.4795 45.6507C44.0627 45.4564 44.7489 45.6445 45.5394 46.216C46.3292 46.787 47.0699 47.4921 47.7628 48.33C48.4554 49.1687 49.2874 50.1096 50.2591 51.1542C51.2314 52.1992 52.0816 52.976 52.8103 53.487L53.5389 53.9243C54.0255 54.2161 54.6573 54.4834 55.435 54.7264C56.2112 54.9691 56.8914 55.0299 57.4754 54.9085L66.8052 54.763C67.728 54.763 68.4461 54.6102 68.9554 54.307C69.4658 54.0033 69.769 53.6687 69.8667 53.3048C69.9643 52.9405 69.9695 52.5271 69.8852 52.065C69.7988 51.6041 69.7137 51.2817 69.6289 51.0996Z" fill="black" fill-opacity="0.25"/>
</g>
<defs>
<clipPath id="clip0_10_45">
<rect width="70" height="70" fill="white"/>
</clipPath>
</defs>
</svg>
