<svg width="70" height="69" viewBox="0 0 70 69" fill="none" xmlns="http://www.w3.org/2000/svg">
<path d="M70 33.6114C70 52.1747 54.6163 67.2229 35.6362 67.2229C29.6108 67.2229 23.9501 65.7049 19.0252 63.0407L0 69L6.20278 50.9665C3.07378 45.9019 1.27167 39.9617 1.27167 33.6114C1.27167 15.0481 16.6569 0 35.6362 0C54.6179 0 70 15.0481 70 33.6114ZM35.6362 5.35287C19.7042 5.35287 6.74489 18.0297 6.74489 33.6114C6.74489 39.7946 8.78967 45.5208 12.2484 50.1791L8.63878 60.674L19.7416 57.1956C24.3032 60.1481 29.7679 61.87 35.637 61.87C51.5667 61.87 64.5283 49.1947 64.5283 33.613C64.5283 18.0312 51.5674 5.35287 35.6362 5.35287ZM52.9892 41.3525C52.7769 41.0098 52.2161 40.8028 51.3746 40.3911C50.5314 39.9794 46.389 37.9853 45.619 37.7116C44.8467 37.4371 44.2836 37.2991 43.7228 38.1233C43.162 38.9482 41.5473 40.8028 41.055 41.3525C40.5634 41.9037 40.0727 41.9727 39.2296 41.5602C38.388 41.1485 35.6743 40.2776 32.4567 37.4716C29.953 35.2881 28.2621 32.5925 27.7706 31.7668C27.2798 30.9427 27.7192 30.4972 28.14 30.0871C28.5196 29.7175 28.9831 29.1249 29.4039 28.6442C29.8262 28.1627 29.9662 27.82 30.2454 27.2696C30.5278 26.7199 30.387 26.2392 30.1754 25.8259C29.9654 25.4142 28.2792 21.3601 27.5777 19.7102C26.8761 18.0619 26.1753 18.3364 25.683 18.3364C25.1922 18.3364 24.6299 18.2674 24.0683 18.2674C23.5068 18.2674 22.5937 18.4736 21.8213 19.2978C21.0498 20.1227 18.8743 22.116 18.8743 26.1694C18.8743 30.2235 21.8913 34.1404 22.3137 34.6894C22.7344 35.2383 28.1392 43.828 36.7026 47.127C45.2667 50.4244 45.2667 49.3243 46.8113 49.1863C48.3544 49.049 51.7938 47.1937 52.4984 45.2709C53.1984 43.345 53.1984 41.6959 52.9892 41.3525Z" fill="black" fill-opacity="0.25"/>
</svg>
