<svg width="129" height="129" viewBox="0 0 129 129" fill="none" xmlns="http://www.w3.org/2000/svg">
<g clip-path="url(#clip0_5_7)">
<path d="M129 64.5C129 28.8758 100.124 0 64.5 0C28.8758 0 0 28.8758 0 64.5C0 100.12 28.8758 129 64.5 129C100.124 129 129 100.124 129 64.5ZM35.7935 82.7858C34.2172 84.362 31.6655 84.362 30.0935 82.7858C28.5212 81.2095 28.5212 78.6578 30.0935 77.0855L60.9605 46.2183C61.928 45.2508 63.2503 44.9525 64.504 45.1742C65.7537 44.9525 67.08 45.2548 68.0475 46.2183L98.9148 77.0855C100.491 78.662 100.491 81.2135 98.9148 82.7858C97.3427 84.362 94.7868 84.362 93.2147 82.7858L64.5 54.0752L35.7935 82.7858Z" fill="#FF5500"/>
</g>
<defs>
<clipPath id="clip0_5_7">
<rect width="129" height="129" fill="white"/>
</clipPath>
</defs>
</svg>
